filtEMG_segment_24.mot
version=1
nRows=47
nColumns=5
inDegrees=no
endheader
                Time	                RGAS	             RLATGAS	                RSOL	                RTIA	
          7.23000000	          0.00484906	          0.01217368	          0.00656439	          0.03882016	
          7.23500000	          0.00496254	          0.01259731	          0.00702207	          0.03460992	
          7.24000000	          0.00508188	          0.01315687	          0.00754132	          0.03036740	
          7.24500000	          0.00520329	          0.01382780	          0.00809036	          0.02629493	
          7.25000000	          0.00532241	          0.01458019	          0.00863390	          0.02258624	
          7.25500000	          0.00543487	          0.01538113	          0.00913606	          0.01941353	
          7.26000000	          0.00553678	          0.01619697	          0.00956359	          0.01691592	
          7.26500000	          0.00562513	          0.01699551	          0.00988864	          0.01519054	
          7.27000000	          0.00569814	          0.01774791	          0.01009124	          0.01428658	
          7.27500000	          0.00575533	          0.01843009	          0.01016095	          0.01420295	
          7.28000000	          0.00579748	          0.01902369	          0.01009777	          0.01488960	
          7.28500000	          0.00582647	          0.01951645	          0.00991205	          0.01625227	
          7.29000000	          0.00584485	          0.01990207	          0.00962357	          0.01816041	
          7.29500000	          0.00585549	          0.02017961	          0.00925966	          0.02045750	
          7.30000000	          0.00586112	          0.02035252	          0.00885273	          0.02297298	
          7.30500000	          0.00586392	          0.02042741	          0.00843725	          0.02553498	
          7.31000000	          0.00586519	          0.02041289	          0.00804661	          0.02798263	
          7.31500000	          0.00586521	          0.02031832	          0.00771004	          0.03017725	
          7.32000000	          0.00586315	          0.02015306	          0.00744995	          0.03201137	
          7.32500000	          0.00585716	          0.01992584	          0.00727997	          0.03341495	
          7.33000000	          0.00584453	          0.01964475	          0.00720380	          0.03435837	
          7.33500000	          0.00582197	          0.01931749	          0.00721519	          0.03485189	
          7.34000000	          0.00578592	          0.01895192	          0.00729873	          0.03494183	
          7.34500000	          0.00573283	          0.01855682	          0.00743167	          0.03470391	
          7.35000000	          0.00565952	          0.01814252	          0.00758644	          0.03423445	
          7.35500000	          0.00556339	          0.01772140	          0.00773359	          0.03364040	
          7.36000000	          0.00544270	          0.01730799	          0.00784489	          0.03302932	
          7.36500000	          0.00529674	          0.01691856	          0.00789633	          0.03250032	
          7.37000000	          0.00512598	          0.01657035	          0.00787058	          0.03213679	
          7.37500000	          0.00493224	          0.01628029	          0.00775875	          0.03200164	
          7.38000000	          0.00471875	          0.01606343	          0.00756131	          0.03213524	
          7.38500000	          0.00449026	          0.01593136	          0.00728799	          0.03255601	
          7.39000000	          0.00425314	          0.01589064	          0.00695681	          0.03326325	
          7.39500000	          0.00401533	          0.01594175	          0.00659220	          0.03424147	
          7.40000000	          0.00378626	          0.01607846	          0.00622259	          0.03546547	
          7.40500000	          0.00357665	          0.01628803	          0.00587760	          0.03690523	
          7.41000000	          0.00339804	          0.01655216	          0.00558517	          0.03853002	
          7.41500000	          0.00326223	          0.01684861	          0.00536893	          0.04031106	
          7.42000000	          0.00318049	          0.01715338	          0.00524607	          0.04222250	
          7.42500000	          0.00316258	          0.01744315	          0.00522596	          0.04424090	
          7.43000000	          0.00321579	          0.01769769	          0.00530952	          0.04634321	
          7.43500000	          0.00334393	          0.01790186	          0.00548958	          0.04850406	
          7.44000000	          0.00354651	          0.01804700	          0.00575190	          0.05069277	
          7.44500000	          0.00381813	          0.01813152	          0.00607698	          0.05287079	
          7.45000000	          0.00414827	          0.01816049	          0.00644219	          0.05499033	
          7.45500000	          0.00452150	          0.01814448	          0.00682415	          0.05699429	
          7.46000000	          0.00491816	          0.01809761	          0.00720089	          0.05881809	
